<svg width="20" height="20" viewBox="0 0 20 20" fill="none" xmlns="http://www.w3.org/2000/svg">
<path d="M2.91667 8.31466C2.91667 7.28957 2.91667 6.77703 3.11933 6.3869C3.2901 6.05814 3.55816 5.79009 3.88692 5.61931C4.27705 5.41666 4.78959 5.41666 5.81467 5.41666H14.1853C15.2104 5.41666 15.723 5.41666 16.1131 5.61931C16.4419 5.79009 16.7099 6.05814 16.8807 6.3869C17.0833 6.77703 17.0833 7.28957 17.0833 8.31466V12.5187C17.0833 13.5437 17.0833 14.0563 16.8807 14.4464C16.7099 14.7752 16.4419 15.0432 16.1131 15.214C15.723 15.4167 15.2104 15.4167 14.1853 15.4167H5.81467C4.78959 15.4167 4.27705 15.4167 3.88692 15.214C3.55816 15.0432 3.2901 14.7752 3.11933 14.4464C2.91667 14.0563 2.91667 13.5437 2.91667 12.5187V8.31466Z" stroke="#D2DAE1"/>
<path d="M2.91667 8.75L17.0833 8.75" stroke="#D2DAE1" stroke-linecap="round"/>
<circle cx="5.41667" cy="12.9167" r="0.416667" fill="#D2DAE1"/>
</svg>
