<svg width="22" height="18" viewBox="0 0 10 18" fill="none" xmlns="http://www.w3.org/2000/svg">
<path d="M8.33249 6.08333H9.99916C9.99916 3.71916 7.70333 2.64083 5.83249 2.3925V0.666664H4.16583V2.3925C2.29499 2.64083 -0.000839233 3.71916 -0.000839233 6.08333C-0.000839233 8.33833 2.22083 9.51083 4.16583 9.775V13.9167C2.95916 13.7075 1.66583 13.0633 1.66583 11.9167H-0.000839233C-0.000839233 14.0742 2.01999 15.3492 4.16583 15.6133V17.3333H5.83249V15.6083C7.70333 15.36 9.99916 14.2808 9.99916 11.9167C9.99916 9.5525 7.70333 8.47416 5.83249 8.22583V4.08333C6.94083 4.2825 8.33249 4.8675 8.33249 6.08333ZM1.66583 6.08333C1.66583 4.8675 3.05749 4.2825 4.16583 4.08333V8.0825C3.02333 7.87166 1.66583 7.2475 1.66583 6.08333ZM8.33249 11.9167C8.33249 13.1325 6.94083 13.7175 5.83249 13.9167V9.91666C6.94083 10.1158 8.33249 10.7008 8.33249 11.9167Z" fill="#D2DAE1"/>
</svg>
